<?xml version="1.0" standalone="no"?><!DOCTYPE svg PUBLIC "-//W3C//DTD SVG 1.1//EN" "http://www.w3.org/Graphics/SVG/1.1/DTD/svg11.dtd"><svg t="1504615605959" class="icon" style="" viewBox="0 0 1024 1024" version="1.1" xmlns="http://www.w3.org/2000/svg" p-id="9582" xmlns:xlink="http://www.w3.org/1999/xlink" width="200" height="200"><defs><style type="text/css"></style></defs><path d="M926.828 581.323v85.834c0 105.633-85.834 171.639-193.655 171.639h-442.333c-105.633 0-193.655-63.822-193.655-171.639v-171.639c0-105.633 85.834-171.639 193.655-171.639h477.537l-114.431 114.431 41.82 41.82 189.257-189.257-189.257-189.257-41.82 41.82 118.826 118.826h-514.949c-121.034 0-220.060 99.031-220.060 220.060v198.061c0 121.034 99.031 220.060 220.060 220.060h506.151c121.034 0 220.060-99.031 220.060-220.060v-99.031h-57.212z" fill="" p-id="9583"></path><path d="M548.31 719.964h-57.212v-213.465c-19.81 19.81-44.019 33.010-72.619 41.82v-50.619c15.407-4.398 30.817-13.193 48.414-26.412 17.61-13.193 28.609-28.609 35.211-46.21h46.21v294.895z" fill="" p-id="9584"></path></svg>