<?xml version="1.0" standalone="no"?><!DOCTYPE svg PUBLIC "-//W3C//DTD SVG 1.1//EN" "http://www.w3.org/Graphics/SVG/1.1/DTD/svg11.dtd"><svg t="1504615385850" class="icon" style="" viewBox="0 0 1024 1024" version="1.1" xmlns="http://www.w3.org/2000/svg" p-id="3777" xmlns:xlink="http://www.w3.org/1999/xlink" width="200" height="200"><defs><style type="text/css"></style></defs><path d="M963.126137 471.495494c0-7.689123-2.938032-15.376199-8.807957-21.252023-5.869925-5.870708-13.538896-8.804527-21.20889-8.804527l-45.87772 0c-19.014832 0-39.128739-14.833847-44.783761-32.971949l-23.789774-57.792241c-8.940993-16.715707-5.258986-41.379433 8.104917-54.810327l32.557821-32.508391c5.430909-5.435803 8.807957-12.94687 8.807957-21.251 0-8.30413-3.334068-15.817244-8.807957-21.271466l-55.257729-55.163367c-5.430909-5.435803-12.92284-8.78406-21.20889-8.78406-8.281956 0-15.817892 3.373841-21.247777 8.78406l-32.557821 32.55137c-13.364927 13.411451-38.120741 17.09433-54.862716 8.108678l-57.750605-23.768333c-18.051861-5.611811-32.949763-25.76378-32.949763-44.757367L583.485472 91.864244c0-7.667633-2.938032-15.356756-8.808981-21.22644-5.869925-5.870708-13.538896-8.807596-21.20889-8.807596l-78.040528 0c-7.713998 0-15.376829 2.936889-21.252894 8.807596-5.870948 5.869684-8.802841 13.558807-8.802841 21.22644l0 45.940308c0 18.993586-14.766913 39.150672-32.910876 44.757367l-57.794609 23.768333c-16.779839 8.983605-41.406712 5.346775-54.773685-8.104585l-32.685739-32.531927c-5.436025-5.434779-12.971961-8.763594-21.252894-8.763594-8.280933 0-15.772865 3.373841-21.20889 8.78406l-55.121624 55.119365c-5.435002 5.435803-8.763953 12.927427-8.807957 21.228487 0 8.284687 3.373979 15.796778 8.807957 21.231557l32.515863 32.57286c13.451911 13.456477 17.131871 38.099736 8.103894 54.815443l-23.793867 57.83215c-5.606924 18.143219-25.720832 32.973996-44.73464 32.973996l-45.923771-0.045025c-7.712975 0-15.382969 2.937912-21.252894 8.807596-5.869925 5.870708-8.807957 13.558807-8.807957 21.246907l0 78.013795c0 7.688099 2.938032 15.382339 8.807957 21.252023 5.869925 5.850242 13.538896 8.783037 21.252894 8.783037l45.923771 0c19.013808 0.045025 39.082688 14.873756 44.694729 32.973996l23.832755 57.788148c8.940993 16.758686 5.304013 41.497113-8.103894 54.858422l-32.602848 32.509415c-5.430909 5.430686-8.807957 12.947893-8.807957 21.271466 0 8.280594 3.377049 15.816221 8.807957 21.252023l55.257729 55.163367c5.430909 5.430686 12.92284 8.78406 21.20889 8.78406 8.280933 0 15.817892-3.353374 21.247777-8.78406l32.602848-32.531927c13.361856-13.386892 37.988729-17.067724 54.68056-7.995091l57.926621 23.768333c18.143962 5.630231 32.910876 25.738198 32.910876 44.756343l0 45.763276c0 7.689123 2.937009 15.376199 8.807957 21.246907 5.869925 5.850242 13.538896 8.78713 21.246754 8.78713l77.996524 0c7.713998 0 15.382969-2.936889 21.252894-8.78713 5.870948-5.870708 8.808981-13.558807 8.808981-21.246907l0-45.763276c0-19.017122 14.897902-39.126112 32.953856-44.756343l57.839636-23.768333c16.735835-9.071609 41.449693-5.3918 54.901604 7.995091l32.382828 32.509415c5.436025 5.454222 12.92284 8.851599 21.252894 8.851599 8.281956 0.019443 15.817892-3.327792 21.247777-8.78406l55.257729-55.206346c5.473889-5.455245 8.807957-12.971429 8.807957-21.275559 0-8.29799-3.377049-15.816221-8.807957-21.245883l-32.557821-32.509415c-13.364927-13.361309-17.04591-38.099736-8.104917-54.858422l23.794891-57.788148c5.649905-18.10024 25.852844-32.927947 44.783761-32.927947l45.873626 0c7.668971 0 15.338965-2.932796 21.20889-8.807596 5.869925-5.870708 8.807957-13.558807 8.807957-21.253046L963.126137 471.495494 963.126137 471.495494 963.126137 471.495494zM705.533039 509.421268c0 106.060571-85.952033 191.960986-191.995459 191.960986-106.092547 0-192.04458-85.899392-192.04458-191.960986 0-106.033965 85.952033-191.982476 192.04458-191.982476C619.581007 317.437769 705.533039 403.387303 705.533039 509.421268" p-id="3778"></path></svg>