<?xml version="1.0" standalone="no"?><!DOCTYPE svg PUBLIC "-//W3C//DTD SVG 1.1//EN" "http://www.w3.org/Graphics/SVG/1.1/DTD/svg11.dtd"><svg t="1504615375050" class="icon" style="" viewBox="0 0 1024 1024" version="1.1" xmlns="http://www.w3.org/2000/svg" p-id="3111" xmlns:xlink="http://www.w3.org/1999/xlink" width="200" height="200"><defs><style type="text/css"></style></defs><path d="M66.741 154.818c-50.68 0-50.68 29.836-50.68 51.114v620.142c0 21.279 20.81 39.241 45.405 39.241l894.204 0.027c49.627 0 49.627-28.299 49.627-47.157v-610.932c0-25.275 0-52.434-49.627-52.434h-888.926zM61.464 831.993c-5.257 0 289.316-315.86 289.316-315.86l70.697 70.462c37.777 34.955 76.835 33.479 91.896 33.479s54.092 1.502 91.87-33.479l71.445-71.221c0 0 291.402 316.618 288.216 316.618h-903.436zM969.723 791.085l-271.609-299.232 271.609-271.86v571.091zM51.687 794.557v-572.916l278.987 272.316-278.987 300.6zM952.574 187.612l-372.334 375.285c-28.353 26.227-56.188 25.129-66.866 25.129s-38.539 1.125-66.866-25.129l-384.267-374.906c0 0-6.034 0.178-0.777 0.178h894.205c3.186-0.001-3.096-0.556-3.096-0.556z" p-id="3112" fill="white"></path></svg>
