<svg t="1504615630526" class="icon" style="" viewBox="0 0 1024 1024" version="1.1" xmlns="http://www.w3.org/2000/svg" p-id="10257" xmlns:xlink="http://www.w3.org/1999/xlink" width="200" height="200">
  <defs><style type="text/css"></style></defs>
  <path d="M691.2 153.6c61.44 0 92.16 21.844992 92.16 65.536 0 0 0 583.68 0 583.68 0 45.056-30.72 67.584-92.16 67.584-61.44 0-92.16-22.528-92.16-67.584 0 0 0-583.68 0-583.68 0-43.691008 30.72-65.536 92.16-65.536 0 0 0 0 0 0m-358.4 0c61.44 0 92.16 21.844992 92.16 65.536 0 0 0 583.68 0 583.68 0 45.056-30.72 67.584-92.16 67.584-61.44 0-92.16-22.528-92.16-67.584 0 0 0-583.68 0-583.68 0-43.691008 30.72-65.536 92.16-65.536 0 0 0 0 0 0" p-id="10258" fill="white"></path>
</svg>
