<?xml version="1.0" standalone="no"?><!DOCTYPE svg PUBLIC "-//W3C//DTD SVG 1.1//EN" "http://www.w3.org/Graphics/SVG/1.1/DTD/svg11.dtd"><svg t="1504616002595" class="icon" style="" viewBox="0 0 1024 1024" version="1.1" xmlns="http://www.w3.org/2000/svg" p-id="6216" xmlns:xlink="http://www.w3.org/1999/xlink" width="200" height="200"><defs><style type="text/css"></style></defs><path d="M839.652923 258.133082c-76.608795-87.902002-187.021487-132.441405-328.113922-132.441405-137.166009 0-245.391896 43.671639-321.722353 129.766482C32.36257 433.341522 67.174424 728.658482 68.703243 741.147934l2.258437 17.945721 102.248755-12.941754 15.772219-2.311649v-15.945157l-0.138147-2.36486c-0.345877-2.499937-28.315906-254.336616 91.617628-389.904221 52.947909-59.861366 128.549771-88.942705 231.076866-88.942705 106.000196 0 183.444009 29.722952 236.808403 90.907452 118.68203 136.227638 86.405929 384.223848 86.094844 386.655224l-2.607384 17.962094 119.933533 16.537651 2.570545-17.753339c0.452301-2.971681 41.761126-303.378565-114.686019-482.859309z" p-id="6217"></path><path d="M210.768843 550.581714H360.19713v347.726609H210.768843zM663.853012 550.581714h149.534711v347.726609H663.853012z" p-id="6218"></path></svg>