<?xml version="1.0" standalone="no"?><!DOCTYPE svg PUBLIC "-//W3C//DTD SVG 1.1//EN" "http://www.w3.org/Graphics/SVG/1.1/DTD/svg11.dtd"><svg t="1504615488202" class="icon" style="" viewBox="0 0 1024 1024" version="1.1" xmlns="http://www.w3.org/2000/svg" p-id="6306" xmlns:xlink="http://www.w3.org/1999/xlink" width="200" height="200"><defs><style type="text/css"></style></defs><path d="M526.6 132L295.5 280.5H180.2c-64.1 0-116 51.3-116 115.5v231.5c0 63.8 51.3 115.5 116 115.5h115.3l231.1 148.3c32.7 14.2 58-1 58-33.1v-693c0-32.2-26-47-58-33.2zM721.3 318.6c-10.9-11.7-29.2-12.3-40.8-1.4-11.7 10.9-12.3 29.2-1.4 40.9 5.4 5.8 14.6 18.6 24.1 37.9 16.2 33 26 71.6 26 115.8s-9.8 82.9-26 115.8c-9.5 19.3-18.7 32.1-24.1 37.9-10.9 11.7-10.3 30 1.4 40.9 11.7 10.9 29.9 10.3 40.9-1.4 9.1-9.7 21.6-27.1 33.7-51.9C775 612.5 787 565.2 787 511.7s-11.9-100.8-31.9-141.4c-12.2-24.7-24.7-42.1-33.8-51.7z" p-id="6307" fill="#999999"></path><path d="M898.6 282.8c-23.4-39.6-46.9-67-63.5-81.7-11.9-10.6-30.2-9.6-40.8 2.4-10.6 12-9.6 30.2 2.4 40.8 2.7 2.4 8.2 7.9 15.4 16.3 12.5 14.5 25 31.7 36.7 51.6 33.6 57 53.8 123.7 53.8 199.6s-20.2 142.6-53.8 199.7c-11.8 19.8-24.3 37-36.8 51.5-7.3 8.4-12.7 13.9-15.4 16.3-11.9 10.6-13 28.9-2.4 40.8 10.6 11.9 28.9 13 40.8 2.4 16.5-14.7 40.1-42.1 63.5-81.7 38.6-65.5 61.8-142.1 61.8-229 0.1-86.9-23.1-163.5-61.7-229z" p-id="6308" fill="#999999"></path></svg>