<svg t="1504615651753" class="icon" style="" viewBox="0 0 1024 1024" version="1.1" xmlns="http://www.w3.org/2000/svg" p-id="11062" xmlns:xlink="http://www.w3.org/1999/xlink" width="200" height="200">
  <defs>
    <style type="text/css"></style>
  </defs>
  <path fill="white" d="M88.70000000000027 846.6000000000001c8.600000000000023 56.3 63.800000000000026 91.49999999999997 116.30000000000003 73.59999999999997C413 849 599.4000000000001 747.5999999999999 764.5 616c2.40000000000002 77.4 7.600000000000051 154.8 15.500000000000071 232.2 1.4210854715202004e-14 46.7 36.70000000000003 84.49999999999997 81.90000000000003 84.49999999999996s81.9-37.900000000000034 81.89999999999996-84.50000000000003c20.49999999999993-225 20.499999999999858-450.1-1.7053025658242404e-13-675.0999999999999-1.4210854715202004e-14-46.7-36.70000000000003-84.49999999999997-81.90000000000003-84.49999999999996s-81.9 37.900000000000034-81.89999999999996 84.50000000000003c-7.799999999999983 76.5-12.899999999999949 153.09999999999997-15.399999999999935 229.6-161.20000000000007-131.99999999999994-348-232.69999999999982-560.4000000000001-301.89999999999986-52.3-16.999999999999975-106.69999999999999 18.10000000000003-115.3 73.90000000000006-34.19999999999992 223.99999999999997-34.29999999999984 447.9-0.19999999999970441 671.9z" p-id="11063"></path>
</svg>
