<?xml version="1.0" standalone="no"?><!DOCTYPE svg PUBLIC "-//W3C//DTD SVG 1.1//EN" "http://www.w3.org/Graphics/SVG/1.1/DTD/svg11.dtd"><svg t="1504615648127" class="icon" style="" viewBox="0 0 1024 1024" version="1.1" xmlns="http://www.w3.org/2000/svg" p-id="10938" xmlns:xlink="http://www.w3.org/1999/xlink" width="200" height="200"><defs><style type="text/css"></style></defs><path d="M935.3 177.4c-8.6-56.3-63.8-91.5-116.3-73.6C611 175 424.6 276.4 259.5 408c-2.4-77.4-7.6-154.8-15.5-232.2 0-46.7-36.7-84.5-81.9-84.5s-81.9 37.9-81.9 84.5c-20.5 225-20.5 450.1 0 675.1 0 46.7 36.7 84.5 81.9 84.5s81.9-37.9 81.9-84.5c7.8-76.5 12.9-153.1 15.4-229.6 161.2 132 348 232.7 560.4 301.9 52.3 17 106.7-18.1 115.3-73.9 34.2-224 34.3-447.9 0.2-671.9z" p-id="10939" fill="white"></path></svg>
