<?xml version="1.0" standalone="no"?><!DOCTYPE svg PUBLIC "-//W3C//DTD SVG 1.1//EN" "http://www.w3.org/Graphics/SVG/1.1/DTD/svg11.dtd"><svg t="1504615568873" class="icon" style="" viewBox="0 0 1024 1024" version="1.1" xmlns="http://www.w3.org/2000/svg" p-id="8207" xmlns:xlink="http://www.w3.org/1999/xlink" width="200" height="200"><defs><style type="text/css"></style></defs><path d="M972.61568 99.67616a19.70176 19.70176 0 0 0-6.18496-4.62848 19.39456 19.39456 0 0 0-21.38112 3.39968l-90.86976 81.44896C736.17408 60.86656 558.44864 8.54016 386.2528 58.81856 135.9872 131.91168-7.68 394.05568 65.39264 644.34176s335.21664 393.91232 585.48224 320.83968c162.26304-47.37024 279.71584-174.16192 322.31424-325.71392 1.45408-5.28384 1.29024-11.18208 1.29024-16.91648a61.29664 61.29664 0 0 0-61.31712-61.29664 61.56288 61.56288 0 0 0-58.6752 42.35264c-30.43328 112.10752-116.71552 206.19264-236.4416 241.13152-182.8864 53.41184-374.43584-51.56864-427.84768-234.496-53.39136-182.90688 51.6096-374.4768 234.496-427.88864 122.61376-35.79904 249.15968-0.38912 335.31904 81.96096l-93.3888 83.61984a19.51744 19.51744 0 0 0-5.7344 20.91008c2.64192 7.4752 9.6256 12.6976 17.55136 13.12768l278.13888 31.51872a19.78368 19.78368 0 0 0 20.74624-18.59584l0.28672-281.00608a19.51744 19.51744 0 0 0-4.99712-14.21312z" p-id="8208"></path></svg>