<?xml version="1.0" standalone="no"?><!DOCTYPE svg PUBLIC "-//W3C//DTD SVG 1.1//EN" "http://www.w3.org/Graphics/SVG/1.1/DTD/svg11.dtd"><svg t="1504615802646" class="icon" style="" viewBox="0 0 1024 1024" version="1.1" xmlns="http://www.w3.org/2000/svg" p-id="1568" xmlns:xlink="http://www.w3.org/1999/xlink" width="200" height="200"><defs><style type="text/css"></style></defs><path d="M956.650079 359.548866l-25.408693 0L702.564173 588.225055 702.564173 435.773921c-172.077124 0-252.286933 56.785308-304.903292 177.859827 0-183.330422 144.651494-355.719654 304.903292-355.719654L702.564173 105.46296 956.650079 359.548866zM270.618441 257.914094c-84.196611 0-152.451134 68.255547-152.451134 152.451134l0 304.903292c0 84.196611 68.255547 152.451134 152.451134 152.451134l431.945733 0c84.196611 0 152.451134-68.255547 152.451134-152.451134L855.015308 531.803022c19.658735-23.754007 36.036751-42.881646 50.817386-59.608609l0 243.074108c0 112.26283-91.00569 203.26852-203.26852 203.26852L270.618441 918.53704c-112.26283 0-203.26852-91.00569-203.26852-203.26852L67.349921 410.365228c0-112.26283 91.00569-203.26852 203.26852-203.26852l305.162188 0c-9.169847 17.859763-21.788236 35.510772-38.887682 50.817386L270.618441 257.914094z" p-id="1569"></path></svg>