<?xml version="1.0" standalone="no"?><!DOCTYPE svg PUBLIC "-//W3C//DTD SVG 1.1//EN" "http://www.w3.org/Graphics/SVG/1.1/DTD/svg11.dtd"><svg t="1504616104757" class="icon" style="" viewBox="0 0 1024 1024" version="1.1" xmlns="http://www.w3.org/2000/svg" p-id="6886" xmlns:xlink="http://www.w3.org/1999/xlink" width="200" height="200"><defs><style type="text/css"></style></defs><path d="M874.359467 195.561244c-93.3888-93.752889-244.804267-93.752889-338.170311 0-2.707911 2.730667-5.074489 5.666133-7.645867 8.487822-5.916444 6.530844-11.423289 13.312-16.520533 20.320711-5.074489-7.008711-10.581333-13.767111-16.520533-20.320711-2.548622-2.821689-4.9152-5.757156-7.645867-8.487822-93.3888-93.752889-244.804267-93.752889-338.193067 0s-93.3888 245.737244 0 339.490133c2.730667 2.730667 5.643378 5.097244 8.465067 7.668622l-0.4096 0.4096 354.281244 355.646578 354.281244-355.646578-0.4096-0.4096c2.821689-2.571378 5.7344-4.937956 8.465067-7.668622C967.748267 441.275733 967.748267 289.268622 874.359467 195.561244zM826.049422 486.513778c-2.707911 2.730667-5.597867 5.165511-8.465067 7.668622l0.4096 0.4096-110.159644 110.592-195.7888 196.562489-195.811556-196.562489-45.761422-45.943467-64.420978-64.671289 0.4096-0.4096c-2.844444-2.503111-5.7344-4.937956-8.465067-7.668622-66.696533-66.9696-66.696533-175.536356 0-242.4832 66.696533-66.9696 174.853689-66.9696 241.550222 0 2.707911 2.730667 5.142756 5.620622 7.645867 8.487822l0.4096-0.4096 32.585956 32.722489 31.812267 31.9488 31.812267-31.9488 32.585956-32.722489 0.4096 0.4096c2.503111-2.8672 4.9152-5.757156 7.645867-8.487822 66.719289-66.9696 174.853689-66.9696 241.550222 0C892.768711 311.000178 892.768711 419.544178 826.049422 486.513778z" p-id="6887"></path></svg>